<?xml version="1.0" encoding="utf-8"?>
<!-- Generator: Adobe Illustrator 25.0.0, SVG Export Plug-In . SVG Version: 6.00 Build 0)  -->
<svg version="1.1" id="Layer_1" xmlns="http://www.w3.org/2000/svg" xmlns:xlink="http://www.w3.org/1999/xlink" x="0px" y="0px"
	 viewBox="0 0 1564 1400.1" style="enable-background:new 0 0 1564 1400.1;" xml:space="preserve">
<style type="text/css">
	.st0{fill:#E4C4FF;}
	.st1{fill:#F36B80;}
	.st2{fill:#5C407B;}
	.st3{fill:#8B5DD0;}
	.st4{fill:#F2F2F2;}
	.st5{fill:#31DAE7;}
	.st6{fill:#E25A74;}
	.st7{fill:#34BED1;}
	.st8{fill:#FFB3C5;}
	.st9{fill:#472A6A;}
	.st10{fill:#EA94AD;}
	.st11{fill:#E1DDE7;}
	.st12{fill:#FF8DA3;}
	.st13{fill:#FFFFFF;}
	.st14{fill:#86B1F2;}
	.st15{fill:#B984F9;}
</style>
<polygon class="st0" points="524.6,342.9 510.6,347.2 501.2,325.4 479.9,329.2 470.2,314.1 462.5,319 475.5,339.2 495.7,335.7 
	505.5,358.3 526.6,351.9 "/>
<polygon class="st1" points="1455.5,1126.6 1441.5,1130.9 1432.1,1109.2 1410.8,1112.9 1401.1,1097.8 1393.5,1102.7 1406.4,1122.9 
	1426.6,1119.4 1436.4,1142.1 1457.5,1135.6 "/>
<g>
	<g>
		<path class="st1" d="M438.3,1384.6c0,0-74.8-253.5-80.8-309.4c-6-55.9,35.8-38.6,35.8-38.6s-35.2-106.6-9.7-131.9
			c25.4-25.3,48.4,21.9,48.4,21.9s7.7-129.4,34.8-129.4c50.5-0.1,49.5,141.1,49.5,141.1s12.9-55.3,40-40.1
			c40.8,22.8-17.7,133.6-17.7,133.6s52,0,70.3,26.3C641.5,1105,438.3,1384.6,438.3,1384.6z"/>
	</g>
</g>
<g>
	<g>
		<path class="st2" d="M462.7,1351.1c0,0-215.6-36.1-262.5-74.3c-46.9-38.2-0.5-55.4-0.5-55.4s-108.3-55.5-107.1-93.3
			c1.3-37.8,55.1-18.6,55.1-18.6S56.4,1005.4,78,985.7c40.2-36.8,145.8,71.4,145.8,71.4s-31.3-51.5,1.7-59.6
			c49.8-12.3,86.5,114.6,86.5,114.6s-9.3-50.1,25-43.4C398.5,1080.6,462.7,1351.1,462.7,1351.1z"/>
	</g>
	<path class="st0" d="M336.9,1068.6c-34.4-6.2-25,43.4-25,43.4s-36.7-126.9-86.5-114.6c-33,8.1-1.7,59.6-1.7,59.6
		S118.3,948.9,78,985.7l384,365.5C455.1,1316.2,394.6,1079,336.9,1068.6z"/>
</g>
<g>
	<path class="st2" d="M524.1,1380.8c0,0-113.6-115.5-170.7-127.5c-57.2-12-46.9,28.7-46.9,28.7s-113.5-99.2-139.8-75.2
		c-26.3,24,2.1,47.3,2.1,47.3s-94.5-16.7-108,14.3c-20.8,47.7,134.6,73.6,134.6,73.6s-65.1,4.5-50,34.4
		C168.2,1421.3,524.1,1380.8,524.1,1380.8z"/>
	<path class="st3" d="M60.8,1268.3c13.5-31,108-14.3,108-14.3s-28.4-23.2-2.1-47.3c26.3-24,136.2,61.7,136.2,61.7
		s-25.9-49.5,31.3-37.5c57.2,12,189.9,149.9,189.9,149.9L60.8,1268.3z"/>
</g>
<g>
	<path class="st4" d="M704.8,189.8c-38.2,6.3-49.6,56.5-17.8,78.9c5.7,4,9.7,10.1,11.3,16.9l5.8,23.3c1.6,6.4,7.9,10.6,14.4,9.5
		L733,316c6.5-1.1,11.2-7,10.6-13.6c-2-24.1-4.5-32.8,3.3-43.6C769.9,227.4,743.1,183.5,704.8,189.8z"/>
	<g>
		<path class="st5" d="M708.7,291.8c-2.5-20.6-6-42.4-7.2-48.6c-21.9,1.2-13.6-21.9-3.5-12.5c2.9,2.7,4.2,6.3,5.1,10.3
			c7.3-0.7,14.4-2.7,20.9-6.1c-0.3-5.1-0.9-8.9,0.6-12.2c2.1-4.9,8.4-6.3,10.9-1.5c1,1.8,1.1,4.1,0.4,6c-1.5,4.1-5.9,6.8-9.7,8.9
			c1.2,16.4,2.7,32.9,4.8,49.2l-2.1,0.3c-2-16-3.6-32.3-4.7-48.4c-6.4,3.2-13.4,5.2-20.6,5.9c1.5,7.9,4.8,29.1,7.1,48.5L708.7,291.8
			z M691.2,238.3c1.9,2.1,5.2,3,10,2.8c-0.8-3.5-2-6.7-4.5-8.9C691.2,227.1,687.9,234.8,691.2,238.3z M726.6,223.5
			c-1.2,2.7-0.7,6.2-0.5,10.3c3.1-1.8,6.8-4,7.9-7.3c0.8-2.3-0.1-5.5-2.4-6.1C731.4,220.3,727.4,221.6,726.6,223.5z"/>
	</g>
	<path class="st5" d="M698.2,285c0.1,0.2,0.1,0.4,0.2,0.6l5.8,23.3c1.6,6.4,7.9,10.6,14.4,9.5L733,316c6.5-1.1,11.2-7,10.6-13.6
		c-0.9-10.7-1.9-18.4-2-24.6L698.2,285z"/>
	<g>
		<path class="st4" d="M676.5,172.3l-11.4-20.9c-1.1-2-0.4-4.6,1.7-5.7c2-1.1,4.6-0.4,5.7,1.7l11.4,20.9c1.1,2,0.4,4.6-1.7,5.7
			C680.1,175.1,677.6,174.4,676.5,172.3z"/>
	</g>
	<g>
		<path class="st4" d="M651.5,222.8l-24.9-2.2c-2.3-0.2-4-2.2-3.8-4.5c0.2-2.3,2.2-4,4.5-3.8l24.9,2.2c2.3,0.2,4,2.2,3.8,4.5
			C655.8,221.3,653.8,223,651.5,222.8z"/>
	</g>
	<g>
		<path class="st4" d="M626.8,299.2c-1.6-1.6-1.6-4.3,0-5.9c6.1-6.1,12.9-11.5,20-16.3c1.9-1.3,4.5-0.8,5.8,1.2
			c1.3,1.9,0.8,4.5-1.2,5.8c-6.7,4.5-13,9.6-18.8,15.3C631.1,300.8,628.4,300.8,626.8,299.2z"/>
	</g>
	<g>
		<path class="st4" d="M738.1,171.2c-2.2-0.6-3.5-2.9-3-5.1c2.8-10.6,4.6-21.5,5.1-32.4c0.1-2.3,2.1-4.1,4.4-3.9
			c2.3,0.1,4.1,2.1,3.9,4.4c-0.6,11.5-2.4,23-5.4,34.1C742.6,170.5,740.3,171.8,738.1,171.2z"/>
	</g>
	<g>
		<path class="st4" d="M763.7,203.2c-0.7-2.2,0.6-4.5,2.8-5.2l25.9-7.8c2.2-0.7,4.5,0.6,5.2,2.8c0.7,2.2-0.6,4.5-2.8,5.2l-25.9,7.8
			C766.7,206.7,764.4,205.5,763.7,203.2z"/>
	</g>
	<g>
		<path class="st4" d="M806.3,272.2c-0.4,0-0.8-0.1-1.1-0.2c-9-2.5-17.7-6-25.9-10.4c-2-1.1-2.8-3.6-1.7-5.6c1.1-2,3.6-2.8,5.6-1.7
			c7.7,4.1,15.9,7.4,24.3,9.7c2.2,0.6,3.5,2.9,2.9,5.1C809.8,271,808.1,272.2,806.3,272.2z"/>
	</g>
</g>
<path class="st0" d="M1211.8,417.2l-13.1-30.9l-32.9-6.8c-3.7-0.8-5-5.5-2.1-8l25.4-22l-3.7-33.3c-0.4-3.8,3.7-6.4,7-4.5l28.7,17.3
	l30.6-13.9c3.5-1.6,7.3,1.5,6.4,5.2l-7.6,32.7l22.6,24.8c2.6,2.8,0.8,7.4-3,7.7l-33.4,2.9l-16.6,29.2
	C1218.1,421,1213.3,420.7,1211.8,417.2z"/>
<polygon class="st1" points="1470.2,300 1464.9,321.6 1429.1,316.8 1417.3,347.5 1390,348.2 1390.4,362.1 1427,361 1438.1,332 
	1475.3,337 1483.4,304.4 "/>
<path class="st6" d="M1075.1,1387.5H446.4c-24,0-43.5-20.2-43.5-45.1v-26.8c0-24.9,19.5-45.1,43.5-45.1h628.7l0,0
	c-28.8,32.6-29.3,82.4-1.2,115.6L1075.1,1387.5z"/>
<path class="st4" d="M1065.4,1283.9H716.7c-24,0-43.5,20.2-43.5,45.1l0,0c0,24.9,19.5,45.1,43.5,45.1h348.7
	C1049.1,1346.4,1049.1,1311.5,1065.4,1283.9z"/>
<path class="st3" d="M854.2,1189.2c0.9-1.7-0.5-3.7-2.6-3.7H519c-26.1,0-47.2,19-47.2,42.5l0,0c0,23.5,21.1,42.5,47.2,42.5h332.7
	c2.1,0,3.5-2,2.6-3.7l0,0C841.1,1242.2,841.2,1213.6,854.2,1189.2z"/>
<path class="st4" d="M852.1,1193.4H687.3c-30.6,0-55.4,15.9-55.4,35.6c0,19.7,24.8,35.6,55.4,35.6h165.9
	C841.9,1242,841.5,1216.2,852.1,1193.4z"/>
<g>
	<path class="st7" d="M809.5,1210.3h-21.5c-4.6,0-8.4,1.6-8.4,3.5v0.3h29.8V1210.3z"/>
	<path class="st5" d="M827.9,1219c0-4.8-5.6-8.7-12.5-8.7h-27.6c5.2,0,9.5,2.9,9.5,6.6l-0.1,93.1l15.2-12l15.5,12L827.9,1219z"/>
</g>
<g>
	<path class="st4" d="M793.1,1182.4H599.5c-17.2,0-31.1-16.5-31.1-36.9l0,0c0-20.4,13.9-36.9,31.1-36.9h193.5l0,0
		c-14.8,20.4-15.4,50.4-1.4,71.7L793.1,1182.4z"/>
	<path class="st2" d="M568.4,1145.5L568.4,1145.5c0-20.4,14.2-36.9,31.8-36.9h196.5c0.9,0,1.7-0.9,1.6-1.9l0,0c0-1-0.7-1.9-1.6-1.9
		H485c-19.4,0-35.1,18.2-35.1,40.7l0,0c0,22.5,15.7,40.7,35.1,40.7h311.7c0.9,0,1.6-0.8,1.6-1.9l0,0c0-1.1-0.7-1.9-1.6-1.9H600.3
		C582.7,1182.4,568.4,1165.9,568.4,1145.5z"/>
	<g>
		<path class="st7" d="M759.3,1126.8h-21.5c-4.6,0-8.4,1.5-8.4,3.4v0.3h29.8V1126.8z"/>
		<path class="st5" d="M777.6,1135.3c0-4.7-5.6-8.5-12.5-8.5h-27.6c5.2,0,9.5,2.9,9.5,6.5l-0.1,91.3l15.2-11.7l15.5,11.7
			L777.6,1135.3z"/>
	</g>
</g>
<g>
	<g>
		<path class="st0" d="M1101.4,562.9l28.6-7.5l-19.4,258.3l-34.3,1.1l17.3-242.5C1094,567.8,1097.1,564.1,1101.4,562.9z"/>
		<g>
			<path class="st1" d="M1113.2,821.1c-0.6,0.1-1.3,0.1-2,0c-5.7-0.7-9.9-6.3-9.4-12.6l19-242.9c0.5-6.3,5.5-10.9,11.2-10.2
				c5.7,0.7,9.9,6.3,9.4,12.6l-19,242.9C1122,816.4,1118,820.6,1113.2,821.1z"/>
			<path class="st1" d="M850.2,834c0,0.2,0,0.4,0,0.5l0,0c0.9,9.9,8.6,17.3,17.1,16.5l241.3-21.6c8.5-0.8,14.8-9.4,13.9-19.3
				c0-0.4-0.1-0.8-0.2-1.2L850.2,834z"/>
		</g>
	</g>
	<path class="st8" d="M1018.3,1094.9c-15.8,8.8-64.1-6.6-64.1-8c-0.7,13.2-54.1,142.4-54.1,142.4l0,39.8c0,0,110,5.2,108.4-4.5
		c-1.6-9.7-7.5-3.4-29.4-21.8c-1.9-1.6-32.8-8.8-24.4-27C971.5,1179,1007.1,1117.8,1018.3,1094.9z"/>
	<path class="st2" d="M896.5,1270.5l120.4,0c4.3-0.4,5.4-4,3.8-6.1c-3.2-4.4-26.2-14.9-41.8-21.8c-27,3.2-74.5-7.2-78.9-13.4
		C888.7,1244.5,894.1,1270,896.5,1270.5z"/>
	<path class="st9" d="M870.1,1002.1c-1.6-4.9,103.7-49.6,108.4-44.5c8.3,9-57,178.6-57,178.6l75,22.9c0,0,78-195.9,74.8-231.7
		c-3.3-35.8-42.3-76.5-127-50.5C859.6,903,870.1,1002.1,870.1,1002.1z"/>
	<path class="st8" d="M1088.1,1117.2c-17.8-3.2-40.8-4.2-59.3-4.5c2.2,16.4,12.7,100.6,10.8,105.8c-7.8,21-25.2,30.8-25.2,30.8
		s81.8,73.8,86.7,65.3c4.9-8.5-3.6-7.4-9-35.5c-0.5-2.5-12.3-41.7-13-62.9C1077.8,1175.8,1087.5,1139.6,1088.1,1117.2z"/>
	<path class="st2" d="M1061.9,841.7c-11.4-6.1-41-6.3-73.6-4.2c-63.5,4.1-126.2,16.6-186.5,36.6l-40.4,13.4l0.1-41.4
		c0,0-128.6-21.5-133,10.4c-6.7,48,1.6,145.4,44.5,167.1c133,67.5,319.5-107.6,320.2-84.7c0.9,30.8,26.8,145.3,33.5,195.4
		c18.4,0.3,50.1,0.3,63.9-2.8C1093.1,1033.2,1094.4,859,1061.9,841.7z"/>
	<path class="st2" d="M1012,1251l91.9,73.4c3.6,2.4,6.7,0.3,6.8-2.3c0.4-5.4-10.9-28.1-18.5-43.3c-22.9-14.7-53.1-53-52.6-60.5
		C1030,1226.5,1010.5,1249.1,1012,1251z"/>
	<path class="st9" d="M804,441.2c-3.1-28.2-6.3-56.6-29.7-77.2c-18.9-16.7-43-19.6-66.8-10.6C640,378.7,674.7,438.6,588.7,499
		c-26.7,18.8-56.2,31.6-76.3,56.9c-28.2,35.4-17.5,77.9,8.1,106.3c122.8,135.9,259.9-47.6,269.8-91.7
		C797.6,537.7,805.9,459.3,804,441.2z"/>
	<path class="st4" d="M779,599.9c-10-18.5-20.4-33.2-20.4-33.2c-10.4-18.5-37.3-27.9-37.3-27.9s-9,0.2-19.3,0.7
		c-0.6,1.7-1.3,2.9-1.9,3.4c-3.9,2.9-26.1-0.8-40.5,8.9c-48.1,41.3-34.8,241.3-31,304.5l146.6,1.4c0,0-18.5-136,11.3-170.9
		C807.3,662.6,793.9,627.3,779,599.9z"/>
	<path class="st8" d="M712.9,471.2c0,0-8.1,57.6-13.7,71.6c-5.6,14,31,43.9,61.4,53c30.4,9.1-9.3-30.9-8-45.9
		c1.3-15,6.8-85.8,6.8-85.8L712.9,471.2z"/>
	<path class="st10" d="M757.8,484.4c0.9-11.7,1.5-20.3,1.5-20.3l-46.5,7.1c0,0-1.2,6.8-2.5,16.3C729.3,498.4,746.2,495,757.8,484.4z
		"/>
	<path class="st8" d="M727.5,366c0,0-18.3,4.1-29.6,21.4c-11.3,17.3-19.1,68,18.2,91.8c37.2,23.7,66.2-9.8,66.7-42.5
		C783.2,403.9,776.2,360.3,727.5,366z"/>
	<path class="st8" d="M791.2,426.4c-3.2,7.9-9.5,12.8-14.1,10.9c-4.6-1.9-5.8-9.8-2.6-17.6c3.2-7.9,9.5-12.8,14.1-10.9
		C793.3,410.6,794.4,418.5,791.2,426.4z"/>
	<path class="st9" d="M733,365c0,0-23.3,52.4-43.9,57c-20.5,4.7-20.2,31-20.2,31s0.5-60.8,19.7-74.8C707.8,364.3,733,365,733,365z"
		/>
	<path class="st8" d="M697.3,432.9c2.7,8.5,0.2,16.9-5.5,18.7c-5.7,1.8-12.6-3.6-15.3-12.1c-2.7-8.5-0.2-16.9,5.5-18.7
		C687.7,419,694.6,424.4,697.3,432.9z"/>
	<path class="st8" d="M959.6,810.9c-8.8-3.2-21.9-3.6-21.7-4.7c0.9-4.7,39.7,10.4,34.5,3.5c-2.9-3.8-32-17.3-39.1-15.1
		c-6.9,2.2-51.9,14.8-51.9,14.8l-123.1-28.9c0,0-31.1-70.6-34.1-131.3c-25.7,3.5-43.2,9.8-65.5,22.2c10.8,58,36.9,152.1,65.9,169.7
		c12.2,7.4,157.5-8.9,157.5-8.9s32-2.3,37.3-4.3c4-1.5,14.2-7.3,19.7-8.9c12.6-3.6,35.1,5.4,35.2,2.9
		C974.3,820.3,968.5,814.2,959.6,810.9z"/>
	<path class="st11" d="M724.9,584.4c-1.2-18.7-8.3-36.7-28.1-42.5c-12.3-3.6-26.1-0.2-36,7.9c-11.7,9.6-15,24.9-14.9,39.4
		c0.1,33,2.4,67.1,8.4,99.6c22.3-12.4,48.4-19.8,74.1-23.3C728.4,665.3,726.5,609.1,724.9,584.4z"/>
</g>
<g>
	<path class="st11" d="M197.3,559.6L6.4,524c-3.8-0.7-6.4-4.4-5.6-8.2l23.9-128.4c0.7-3.8,4.4-6.4,8.2-5.6l190.9,35.5
		c3.8,0.7,6.4,4.4,5.6,8.2l-23.9,128.4C204.8,557.8,201.1,560.3,197.3,559.6z"/>
	<path class="st11" d="M106.4,412.8L48.3,402c-3.8-0.7-6.4-4.4-5.6-8.2l3.6-19.5c0.7-3.8,4.4-6.4,8.2-5.6l58.1,10.8
		c3.8,0.7,6.4,4.4,5.6,8.2l-3.6,19.5C113.9,411,110.3,413.5,106.4,412.8z"/>
	<path class="st4" d="M206,554.7c-1,3.5-4.5,5.7-8.1,5L5.8,523.9c-3.6-0.7-6.1-3.9-5.7-7.6l10.1-115.1c0.2-2,1.2-3.8,2.8-5
		c1.6-1.2,3.6-1.7,5.6-1.3l213.4,39.7c2,0.4,3.7,1.5,4.7,3.2c1,1.7,1.3,3.7,0.8,5.6L206,554.7z"/>
</g>
<g>
	<polygon class="st1" points="1417.6,106.3 1384.9,115.2 1377.9,75.6 1388.6,73.7 1393.5,101.6 1414.7,95.8 	"/>
</g>
<g>
	<path class="st3" d="M124.6,691.7c8.2-0.7,20.8,2.9,26.4,6.8c0.8,0.8,7.3,3.4,14.1,14.5l-1.5,1c-7.1-7.4-11.9-9.1-17.6-10.8
		c-9.4-2.4-18.8-0.6-19.6-0.2L124.6,691.7z"/>
	<path class="st1" d="M164.3,713.5c0,0-49.9,8.3-45.2,47.3c4.7,39,57.3,69.3,104.2,45.2c63.2-32.4,38.2-114.8-6.7-121.2
		C171.6,678.4,164.3,713.5,164.3,713.5z"/>
	<path class="st12" d="M185.5,696.4c0,0,13-13.4,41.5-1.2c28.5,12.2,30.6,68.8,5.1,65.5C206.7,757.4,165.1,704.5,185.5,696.4z"/>
</g>
<g>
	<path class="st5" d="M548.3,130.8L343.2,204c-6.6,2.4-13.9-1.1-16.2-7.7L289.1,90.1c-2.4-6.6,1.1-13.9,7.7-16.2L501.9,0.7
		c6.6-2.4,13.9,1.1,16.2,7.7L556,114.6C558.4,121.2,554.9,128.4,548.3,130.8z"/>
	<path class="st13" d="M412.4,103.5c7.5,21.1-3.5,44.4-24.6,51.9c-21.1,7.5-44.4-3.5-51.9-24.6c-7.5-21.1,3.5-44.4,24.6-51.9
		C381.6,71.4,404.8,82.4,412.4,103.5z"/>
	<path class="st14" d="M379.9,97.8c2.2,6.2-1,13.1-7.3,15.3c-6.2,2.2-13.1-1-15.3-7.3c-2.2-6.2,1-13.1,7.3-15.3
		C370.8,88.4,377.7,91.6,379.9,97.8z"/>
	<path class="st14" d="M399.4,131.3l-36.1,12.9l-1.4-4c-2.6-7.4,1.2-15.5,8.6-18.1l9.3-3.3c7.4-2.6,15.5,1.2,18.1,8.6L399.4,131.3z"
		/>
	<g>
		<path class="st13" d="M417.4,81.3c-2.2,0-4.1-1.4-4.9-3.4c-1-2.7,0.4-5.7,3.1-6.6l89.7-32c0.6-0.2,1.1-0.3,1.7-0.3
			c2.2,0,4.1,1.4,4.9,3.4c1,2.7-0.4,5.7-3.1,6.6l-89.7,32C418.6,81.2,418,81.3,417.4,81.3z"/>
	</g>
	<g>
		<path class="st13" d="M441.6,103.7c-2.2,0-4.1-1.4-4.9-3.4c-1-2.7,0.4-5.7,3.1-6.6l70-25c0.6-0.2,1.1-0.3,1.7-0.3
			c2.2,0,4.1,1.4,4.9,3.4c0.5,1.3,0.4,2.7-0.2,4c-0.6,1.3-1.6,2.2-2.9,2.7l-70,25C442.8,103.6,442.2,103.7,441.6,103.7z"/>
	</g>
</g>
<path class="st5" d="M908.9,1025.7H413.7c-15.4,0-27.8,12.5-27.8,27.8v23.4c0,15.4,12.5,27.8,27.8,27.8h495.2l-0.3-0.3
	C887.5,1082.5,887.6,1047.6,908.9,1025.7z"/>
<path class="st4" d="M900.2,1037.4H635.4c-15.4,0-27.8,12.5-27.8,27.8l0,0c0,15.4,12.5,27.8,27.8,27.8h264.7
	C890.4,1075.9,890.5,1054.7,900.2,1037.4z"/>
<g>
	<g>
		<path class="st4" d="M1355.6,999.3l-37.5-94.2c-1.9-4.7,0.4-10.1,5.2-12l135.1-53.8c4.7-1.9,10.1,0.4,12,5.2l37.5,94.2
			c1.9,4.7-0.4,10.1-5.2,12l-135.1,53.8C1362.9,1006.3,1357.5,1004,1355.6,999.3z"/>
		<path class="st5" d="M1483.1,944.8l-33.7-84.6c-0.5-1.4,0.1-2.9,1.5-3.4l0,0c1.4-0.5,2.9,0.1,3.4,1.5l33.7,84.6
			c0.5,1.4-0.1,2.9-1.5,3.4l0,0C1485.1,946.8,1483.6,946.2,1483.1,944.8z"/>
		<path class="st5" d="M1467,933.7l-27.7-69.5c-0.5-1.4,0.1-2.9,1.5-3.4l0,0c1.4-0.5,2.9,0.1,3.4,1.5l27.7,69.5
			c0.5,1.4-0.1,2.9-1.5,3.4l0,0C1469.1,935.7,1467.5,935,1467,933.7z"/>
		<path class="st5" d="M1463,952.8l-33.7-84.6c-0.5-1.4,0.1-2.9,1.5-3.4l0,0c1.4-0.5,2.9,0.1,3.4,1.5l33.7,84.6
			c0.5,1.4-0.1,2.9-1.5,3.4l0,0C1465.1,954.8,1463.5,954.2,1463,952.8z"/>
		<path class="st5" d="M1445.3,937.5l-26-65.3c-0.5-1.4,0.1-2.9,1.5-3.4l0,0c1.4-0.5,2.9,0.1,3.4,1.5l26,65.3
			c0.5,1.4-0.1,2.9-1.5,3.4l0,0C1447.3,939.5,1445.8,938.8,1445.3,937.5z"/>
		<g>
			<path class="st5" d="M1482.2,851.1l-0.7-1.7c-0.3-0.6-0.9-0.9-1.5-0.7l-12.8,5.1c-0.6,0.2-0.9,0.9-0.6,1.6l0.7,1.7
				c0.3,0.6,0.9,0.9,1.5,0.7l12.8-5.1C1482.1,852.5,1482.4,851.8,1482.2,851.1z"/>
			<path class="st5" d="M1485.1,858.4l-0.7-1.7c-0.3-0.6-0.9-0.9-1.5-0.7l-12.8,5.1c-0.6,0.2-0.9,0.9-0.6,1.6l0.7,1.7
				c0.3,0.6,0.9,0.9,1.5,0.7l12.8-5.1C1485,859.8,1485.3,859.1,1485.1,858.4z"/>
			<path class="st5" d="M1488,865.7l-0.7-1.7c-0.2-0.6-0.9-0.9-1.5-0.7l-12.8,5.1c-0.6,0.2-0.9,0.9-0.6,1.6l0.7,1.7
				c0.3,0.6,0.9,0.9,1.5,0.7l12.8-5.1C1487.9,867.1,1488.2,866.4,1488,865.7z"/>
			<path class="st5" d="M1490.9,873l-0.7-1.7c-0.3-0.6-0.9-0.9-1.5-0.7l-12.8,5.1c-0.6,0.2-0.9,0.9-0.6,1.6l0.7,1.7
				c0.3,0.6,0.9,0.9,1.5,0.7l12.8-5.1C1490.8,874.3,1491.1,873.6,1490.9,873z"/>
			<path class="st5" d="M1493.8,880.3l-0.7-1.7c-0.3-0.6-0.9-0.9-1.5-0.7l-12.8,5.1c-0.6,0.2-0.9,0.9-0.6,1.6l0.7,1.7
				c0.3,0.6,0.9,0.9,1.5,0.7l12.8-5.1C1493.7,881.6,1494,880.9,1493.8,880.3z"/>
			<path class="st5" d="M1496.7,887.6l-0.7-1.7c-0.3-0.6-0.9-0.9-1.5-0.7l-12.8,5.1c-0.6,0.2-0.9,0.9-0.6,1.6l0.7,1.7
				c0.3,0.6,0.9,0.9,1.5,0.7l12.8-5.1C1496.7,888.9,1496.9,888.2,1496.7,887.6z"/>
			<path class="st5" d="M1499.6,894.9l-0.7-1.7c-0.3-0.6-0.9-0.9-1.5-0.7l-12.8,5.1c-0.6,0.2-0.9,0.9-0.6,1.6l0.7,1.7
				c0.3,0.6,0.9,0.9,1.5,0.7l12.8-5.1C1499.6,896.2,1499.8,895.5,1499.6,894.9z"/>
			<path class="st5" d="M1502.5,902.2l-0.7-1.7c-0.3-0.6-0.9-0.9-1.5-0.7l-12.8,5.1c-0.6,0.2-0.9,0.9-0.6,1.6l0.7,1.7
				c0.3,0.6,0.9,0.9,1.5,0.7l12.8-5.1C1502.5,903.5,1502.7,902.8,1502.5,902.2z"/>
			<path class="st5" d="M1505.4,909.5l-0.7-1.7c-0.3-0.6-0.9-0.9-1.5-0.7l-12.8,5.1c-0.6,0.2-0.9,0.9-0.6,1.6l0.7,1.7
				c0.3,0.6,0.9,0.9,1.5,0.7l12.8-5.1C1505.4,910.8,1505.6,910.1,1505.4,909.5z"/>
			<path class="st5" d="M1508.3,916.7l-0.7-1.7c-0.3-0.6-0.9-0.9-1.5-0.7l-12.8,5.1c-0.6,0.2-0.9,0.9-0.6,1.6l0.7,1.7
				c0.3,0.6,0.9,0.9,1.5,0.7l12.8-5.1C1508.3,918.1,1508.6,917.4,1508.3,916.7z"/>
			<path class="st5" d="M1511.2,924l-0.7-1.7c-0.2-0.6-0.9-0.9-1.5-0.7l-12.8,5.1c-0.6,0.2-0.9,0.9-0.6,1.6l0.7,1.7
				c0.3,0.6,0.9,0.9,1.5,0.7l12.8-5.1C1511.2,925.4,1511.5,924.7,1511.2,924z"/>
			<path class="st5" d="M1514.1,931.3l-0.7-1.7c-0.3-0.6-0.9-0.9-1.5-0.7l-12.8,5.1c-0.6,0.2-0.9,0.9-0.6,1.6l0.7,1.7
				c0.2,0.6,0.9,0.9,1.5,0.7l12.8-5.1C1514.1,932.7,1514.4,932,1514.1,931.3z"/>
		</g>
	</g>
	<g>
		<path class="st1" d="M1549.5,923.8l-53.6,76.3c-0.1,0.2-0.2,0.4-0.3,0.6l-5.5,16.8c-0.6,2,1.6,3.6,3.3,2.3l14.3-10.8
			c0.2-0.1,0.3-0.3,0.5-0.5L1562,932c0.7-1,0.4-2.3-0.6-3l-9-5.8C1551.4,922.7,1550.2,922.9,1549.5,923.8z"/>
		<path class="st4" d="M1508.2,1008.6l-0.1,0.2l-13.8,10.4l-3.8-2.5l5.2-15.9C1499.7,1003,1504.5,1005.3,1508.2,1008.6z"/>
	</g>
</g>
<g>
	<path class="st15" d="M1005.3,53.8c7.7,6.2,21.1,26,38.3,39.9c10,8.1,17.7,6.1,30.5,7.6c60.7,7.3,44.2,19.7,51.5,21
		c-2.1,4.8-21,44.9-24.5,53.1c-3.3,7.5-8.9,10.8-17.1,9.7c-12.5-1.7-25.2-3-37.6-5.7c-31.7-6.9-49.3-22.7-72-41.9
		c-6-5.1-7.5-11.5-4.4-18.7C984.6,85.2,1003.7,56.9,1005.3,53.8z"/>
	<path class="st0" d="M1132.2,170.6c-0.3,13.2,0.7,15.9-4.9,13.9c-3.4-1.2-6.7-2.8-10-4.4c-2.3-1.2-2.4-2.7-0.5-4.6
		c2.7-2.7,5.5-5.3,8.2-8c-2-5.2,0.3-11.2,5.1-14.1c1-0.6,0.3,0.6,8.7-18.8c-27.9-3.4-47.7-5.8-81.8-10c-9.1-1.1-17.2-4.7-24.3-10.6
		c-24.4-20.4-48.7-40.8-73-61.1c-3.3-2.8-3.7-6.8-1.1-9.9c2-2.4,4.7-2.5,7.5-2.1c7.8,1,84.1,10.5,91.8,11.4c10.2,1.2,19.1,5,27,11.6
		c23.9,20,47.9,40,71.9,60c3.3,2.7,4.2,5.3,3,8.3c-1.3,3.4-4,5-8.2,4c-3-0.7-4.4,0.3-5.4,3.1c-4.7,12.6-8,15.4-6.8,20.1
		C1140.2,162.9,1136,169.1,1132.2,170.6z"/>
</g>
<g>
	<path class="st5" d="M1257.5,1146.8l13.9,13.3c32.9,31.4,59.7,68.5,79.1,109.6l2.1,4.5c0,0,36.4,3.2,41.5-29.7l0,0
		c-31.9-36.1-58.2-74.6-79.9-117.4l-6.6-15.4L1257.5,1146.8z"/>
	<path class="st4" d="M1307.6,1111.6c1.8,2.6-8,12.5-21.8,22.1c-13.8,9.6-26.6,15.5-28.3,12.9c-1.8-2.6,8-12.6,21.9-22.2
		C1293.2,1114.8,1305.8,1109.1,1307.6,1111.6z"/>
	<path class="st4" d="M1307.7,1111.7L1307.7,1111.7c0,0-27.8,23.4-39.2,25.8l3.5,4.8c4.2-2.3,8.9-5.2,13.8-8.6
		C1299.5,1124.2,1309.2,1114.4,1307.7,1111.7z"/>
	<g>
		<path class="st1" d="M1344.7,1179.8c0,4-1.5,21.5-30.5,28.8c1.9,2.6,3.8,5.2,5.6,7.9c18.4-5.4,26.6-14.9,30.4-22.1
			c0.6-1.1,1.3-2.7,1.8-3.8C1349.5,1187,1347.1,1183.5,1344.7,1179.8z"/>
		<polygon class="st1" points="1316.8,1203.5 1274,1201.9 1284.2,1210.5 1278.1,1221.5 1318.6,1211.2 		"/>
		<polygon class="st1" points="1320.7,1213.4 1305.5,1239.9 1316.2,1235.8 1320.3,1244.2 1327.4,1216.4 		"/>
		<path class="st1" d="M1326.5,1220.6c-7.5,0.5-14-5.3-14.6-13c-0.5-7.7,5.1-14.4,12.6-15c7.5-0.5,14,5.3,14.6,13
			C1339.6,1213.3,1334,1220,1326.5,1220.6z"/>
	</g>
</g>
<g>
	<path class="st5" d="M1471.2,609.3l-90-80.3c-5.8-5.2-3.4-16,4.7-20.5l71.8-40.7c4.6-2.6,9.8-2.4,13.1,0.6l90,80.3
		c5.8,5.2,3.4,16-4.7,20.5l-71.8,40.7C1479.7,612.5,1474.5,612.3,1471.2,609.3z"/>
	<g>
		<path class="st13" d="M1466.9,545.4l-7.5-61.7c-0.3-2.4,1.4-4.9,3.8-5.6c2.4-0.8,4.6,0.6,4.9,2.9l6.9,56.8l68.2,16.5
			c2.2,0.5,3.3,2.9,2.3,5.4c-1,2.4-3.5,3.9-5.8,3.4L1466.9,545.4z"/>
	</g>
</g>
<g>
	<path class="st3" d="M7.4,1386.7c-4.2,0-7.4,1.1-7.4,6.7c0,5.6,2.3,6.7,8.3,6.7h1552.1c2,0,3.6-3,3.6-6.7l0,0
		c0-3.7-1.6-6.7-3.6-6.7H7.4z"/>
</g>
<polygon class="st0" points="146.3,215.2 155.6,233.6 176.6,233 185.6,254.3 207.7,246.7 218.9,270.4 240.2,265.9 254.7,287 
	246.7,292.5 235.9,276.7 213.4,281.5 202.7,258.7 180.1,266.4 170.2,242.8 149.7,243.5 141.1,226.5 127.7,229.7 125.4,220.3 "/>
<polygon class="st1" points="1324.2,739.1 1343.3,746.9 1358.7,732.6 1379.5,742.8 1391.2,722.5 1415.2,733 1428.3,715.6 1453,722 
	1450.6,731.3 1432.1,726.6 1418.3,744.9 1395.2,734.8 1383.3,755.5 1360.4,744.2 1345.3,758.2 1327.6,751 1319.7,762.2 
	1311.8,756.7 "/>
</svg>
